<?xml version="1.0"?>
<svg xmlns="http://www.w3.org/2000/svg" xmlns:xlink="http://www.w3.org/1999/xlink" version="1.1" id="Capa_1" x="0px" y="0px" width="512px" height="512px" viewBox="0 0 45.355 45.355" style="enable-background:new 0 0 45.355 45.355;" xml:space="preserve" class=""><g><g>
	<path d="M33.052,29.672c2.36-3.099,3.781-6.952,3.781-11.14c0.003-10.154-8.26-18.417-18.414-18.417C8.262,0.115,0,8.378,0,18.532   C0,28.689,8.265,36.95,18.419,36.95c4.307,0,8.263-1.495,11.397-3.979l12.27,12.27l3.27-3.27L33.052,29.672z M18.419,32.805   c-7.871,0-14.271-6.4-14.271-14.271c0-7.87,6.4-14.272,14.271-14.272c7.87,0,14.271,6.401,14.271,14.271   S26.288,32.805,18.419,32.805z" data-original="#000000" class="active-path" data-old_color="#CEB9B9" fill="#B3B8B8"/>
</g></g> </svg>
